<?xml version="1.0" encoding="UTF-8"?>
<!DOCTYPE svg PUBLIC "-//W3C//DTD SVG 1.1//EN" "http://www.w3.org/Graphics/SVG/1.1/DTD/svg11.dtd">
<svg xmlns="http://www.w3.org/2000/svg" version="1.1" width="512px" height="512px" style="shape-rendering:geometricPrecision; text-rendering:geometricPrecision; image-rendering:optimizeQuality; fill-rule:evenodd; clip-rule:evenodd" xmlns:xlink="http://www.w3.org/1999/xlink">
<g><path style="opacity:0.973" fill="#010101" d="M 234.5,-0.5 C 248.833,-0.5 263.167,-0.5 277.5,-0.5C 373.956,11.1601 444.122,60.1601 488,146.5C 500.54,174.005 508.374,202.672 511.5,232.5C 511.5,248.167 511.5,263.833 511.5,279.5C 498.481,378.003 447.148,448.503 357.5,491C 331.688,501.669 305.021,508.502 277.5,511.5C 262.833,511.5 248.167,511.5 233.5,511.5C 151.784,502.237 87.6169,463.904 41,396.5C 17.6871,359.726 3.85379,319.726 -0.5,276.5C -0.5,262.833 -0.5,249.167 -0.5,235.5C 9.50741,143.619 54.5074,74.7859 134.5,29C 166.069,12.7502 199.403,2.9169 234.5,-0.5 Z M 220.5,115.5 C 220.5,130.833 220.5,146.167 220.5,161.5C 215.167,161.5 209.833,161.5 204.5,161.5C 203.51,167.31 203.177,173.31 203.5,179.5C 209.167,179.5 214.833,179.5 220.5,179.5C 220.333,222.168 220.5,264.835 221,307.5C 226.449,320.399 232.449,333.065 239,345.5C 240.214,347.049 241.714,348.215 243.5,349C 251.833,349.667 260.167,349.667 268.5,349C 269.667,347.833 270.833,346.667 272,345.5C 278.551,333.065 284.551,320.399 290,307.5C 290.5,264.835 290.667,222.168 290.5,179.5C 296.167,179.5 301.833,179.5 307.5,179.5C 307.823,173.31 307.49,167.31 306.5,161.5C 301.167,161.5 295.833,161.5 290.5,161.5C 290.5,146.167 290.5,130.833 290.5,115.5C 294.501,116.5 298.501,117.5 302.5,118.5C 302.107,121.93 302.773,125.096 304.5,128C 364.012,155.233 392.845,201.733 391,267.5C 383.939,321.833 355.439,359.999 305.5,382C 299.859,383.936 294.192,385.769 288.5,387.5C 287.795,390.089 287.795,392.756 288.5,395.5C 284.425,397.118 280.092,398.118 275.5,398.5C 271.896,388.622 267.73,378.955 263,369.5C 258,364.167 253,364.167 248,369.5C 243.821,379.188 239.654,388.855 235.5,398.5C 231.186,397.725 226.853,397.059 222.5,396.5C 223.321,393.446 223.321,390.446 222.5,387.5C 162.55,369.047 128.383,328.714 120,266.5C 117.687,211.286 139.521,168.786 185.5,139C 191.888,135.139 198.554,131.806 205.5,129C 208.471,125.937 209.471,122.437 208.5,118.5C 212.499,117.5 216.499,116.5 220.5,115.5 Z"/></g>
<g><path style="opacity:0.998" fill="#86b136" d="M 302.5,118.5 C 298.501,117.5 294.501,116.5 290.5,115.5C 289.669,103.007 289.169,90.34 289,77.5C 282.005,57.0848 267.839,48.5848 246.5,52C 233.904,56.262 225.738,64.762 222,77.5C 221.831,90.34 221.331,103.007 220.5,115.5C 216.499,116.5 212.499,117.5 208.5,118.5C 196.33,90.015 184.33,61.3483 172.5,32.5C 183.841,26.9991 195.841,23.1658 208.5,21C 252.07,13.1237 294.737,16.457 336.5,31C 337.428,31.3879 338.095,32.0546 338.5,33C 326.862,61.7621 314.862,90.2621 302.5,118.5 Z"/></g>
<g><path style="opacity:1" fill="#fab42e" d="M 154.5,38.5 C 156.411,38.5743 157.578,39.5743 158,41.5C 167.471,64.9142 177.138,88.2476 187,111.5C 187.991,113.447 188.325,115.447 188,117.5C 156.667,132.833 133.333,156.167 118,187.5C 117.439,188.022 116.772,188.355 116,188.5C 89.7745,178.156 63.9412,167.156 38.5,155.5C 56.3057,117.198 82.3057,85.6982 116.5,61C 128.735,52.7179 141.402,45.2179 154.5,38.5 Z"/></g>
<g><path style="opacity:1" fill="#86ccd7" d="M 354.5,38.5 C 408.399,62.7317 447.732,101.732 472.5,155.5C 446.934,166.859 421.101,177.859 395,188.5C 385.497,171.973 373.997,156.806 360.5,143C 349.126,132.892 336.626,124.392 323,117.5C 332.895,91.0264 343.395,64.693 354.5,38.5 Z"/></g>
<g><path style="opacity:0.97" fill="#010000" d="M 290.5,115.5 C 290.5,130.833 290.5,146.167 290.5,161.5C 295.833,161.5 301.167,161.5 306.5,161.5C 306.5,167.167 306.5,172.833 306.5,178.5C 300.401,178.167 295.068,178.5 290.5,179.5C 290.667,222.168 290.5,264.835 290,307.5C 284.551,320.399 278.551,333.065 272,345.5C 270.833,346.667 269.667,347.833 268.5,349C 260.167,349.667 251.833,349.667 243.5,349C 241.714,348.215 240.214,347.049 239,345.5C 232.449,333.065 226.449,320.399 221,307.5C 220.5,264.835 220.333,222.168 220.5,179.5C 215.932,178.5 210.599,178.167 204.5,178.5C 204.5,172.833 204.5,167.167 204.5,161.5C 209.833,161.5 215.167,161.5 220.5,161.5C 220.5,146.167 220.5,130.833 220.5,115.5C 221.331,103.007 221.831,90.34 222,77.5C 225.738,64.762 233.904,56.262 246.5,52C 267.839,48.5848 282.005,57.0848 289,77.5C 289.169,90.34 289.669,103.007 290.5,115.5 Z"/></g>
<g><path style="opacity:1" fill="#080603" d="M 137.5,67.5 C 138.496,67.4142 139.329,67.7476 140,68.5C 142.698,72.367 145.198,76.367 147.5,80.5C 142.804,84.5212 137.804,88.1878 132.5,91.5C 128.974,87.1409 125.641,82.6409 122.5,78C 127.566,74.4778 132.566,70.9778 137.5,67.5 Z"/></g>
<g><path style="opacity:1" fill="#e75849" d="M 251.5,67.5 C 260.992,66.9951 267.826,70.9951 272,79.5C 272.5,106.831 272.667,134.165 272.5,161.5C 261.167,161.5 249.833,161.5 238.5,161.5C 238.333,134.498 238.5,107.498 239,80.5C 241.353,74.3154 245.52,69.982 251.5,67.5 Z"/></g>
<g><path style="opacity:1" fill="#060402" d="M 110.5,87.5 C 114.92,91.0906 118.92,95.2572 122.5,100C 106.654,113.841 92.9872,129.507 81.5,147C 77.1869,145.004 72.8536,142.671 68.5,140C 67.4652,138.493 67.6319,136.993 69,135.5C 80.7342,117.708 94.5675,101.708 110.5,87.5 Z"/></g>
<g><path style="opacity:1" fill="#fb872e" d="M 31.5,172.5 C 58.1759,182.671 84.5092,193.671 110.5,205.5C 99.8409,238.616 99.8409,271.782 110.5,305C 108.874,306.819 106.874,308.152 104.5,309C 80.5859,318.638 56.7526,328.471 33,338.5C 27.3246,326.831 23.3246,314.497 21,301.5C 12.9711,257.514 16.4711,214.514 31.5,172.5 Z"/></g>
<g><path style="opacity:1" fill="#4296cf" d="M 476.5,172.5 C 477.822,172.33 478.989,172.663 480,173.5C 499.181,227.831 499.181,282.165 480,336.5C 479.612,337.428 478.945,338.095 478,338.5C 452.557,327.862 427.057,317.362 401.5,307C 400.978,306.439 400.645,305.772 400.5,305C 408.545,280.048 410.712,254.548 407,228.5C 405.53,220.452 403.364,212.619 400.5,205C 426.008,194.408 451.342,183.575 476.5,172.5 Z"/></g>
<g><path style="opacity:0.392" fill="#672720" d="M 204.5,161.5 C 204.5,167.167 204.5,172.833 204.5,178.5C 210.599,178.167 215.932,178.5 220.5,179.5C 214.833,179.5 209.167,179.5 203.5,179.5C 203.177,173.31 203.51,167.31 204.5,161.5 Z"/></g>
<g><path style="opacity:0.392" fill="#64261f" d="M 306.5,161.5 C 307.49,167.31 307.823,173.31 307.5,179.5C 301.833,179.5 296.167,179.5 290.5,179.5C 295.068,178.5 300.401,178.167 306.5,178.5C 306.5,172.833 306.5,167.167 306.5,161.5 Z"/></g>
<g><path style="opacity:1" fill="#70c1ce" d="M 272.5,195.5 C 261.167,195.5 249.833,195.5 238.5,195.5C 238.5,189.833 238.5,184.167 238.5,178.5C 249.833,178.5 261.167,178.5 272.5,178.5C 272.5,184.167 272.5,189.833 272.5,195.5 Z"/></g>
<g><path style="opacity:1" fill="#84cad5" d="M 238.5,195.5 C 249.833,195.5 261.167,195.5 272.5,195.5C 274.887,210.954 268.887,215.788 254.5,210C 249.446,209.219 244.446,209.386 239.5,210.5C 238.506,205.544 238.173,200.544 238.5,195.5 Z"/></g>
<g><path style="opacity:1" fill="#4297d0" d="M 244.5,225.5 C 248.732,225.778 252.732,226.944 256.5,229C 261.871,229.676 267.204,229.509 272.5,228.5C 272.667,254.169 272.5,279.835 272,305.5C 267.561,314.045 263.394,322.711 259.5,331.5C 256.966,332.777 254.466,332.777 252,331.5C 247.667,322.833 243.333,314.167 239,305.5C 238.5,279.502 238.333,253.502 238.5,227.5C 240.786,227.405 242.786,226.738 244.5,225.5 Z"/></g>
<g><path style="opacity:1" fill="#e65849" d="M 114.5,322.5 C 115.822,322.33 116.989,322.663 118,323.5C 133.167,354.667 156.333,377.833 187.5,393C 188.022,393.561 188.355,394.228 188.5,395C 177.859,421.101 166.859,446.934 155.5,472.5C 102.833,447.167 63.8333,408.167 38.5,355.5C 63.6633,344.112 88.9966,333.112 114.5,322.5 Z"/></g>
<g><path style="opacity:1" fill="#b561e1" d="M 393.5,322.5 C 420.239,332.708 446.573,343.708 472.5,355.5C 447.833,408.833 408.833,447.833 355.5,472.5C 344.104,446.871 333.104,421.037 322.5,395C 322.645,394.228 322.978,393.561 323.5,393C 355.05,377.617 378.383,354.117 393.5,322.5 Z"/></g>
<g><path style="opacity:0.984" fill="#020102" d="M 275.5,398.5 C 278.757,405.763 281.924,413.096 285,420.5C 287.934,433.699 284.434,444.865 274.5,454C 257.363,464.629 242.53,462.129 230,446.5C 225.736,438.687 224.403,430.354 226,421.5C 229.179,413.812 232.346,406.145 235.5,398.5C 239.654,388.855 243.821,379.188 248,369.5C 253,364.167 258,364.167 263,369.5C 267.73,378.955 271.896,388.622 275.5,398.5 Z"/></g>
<g><path style="opacity:0.998" fill="#e04a85" d="M 288.5,395.5 C 290.272,398.161 291.605,401.161 292.5,404.5C 297.284,402.422 302.117,401.422 307,401.5C 317.5,427 328,452.5 338.5,478C 338.095,478.945 337.428,479.612 336.5,480C 281.92,499.49 227.42,499.323 173,479.5C 172.333,478.5 172.333,477.5 173,476.5C 183.567,450.938 194.4,425.605 205.5,400.5C 210.004,402.446 214.671,403.78 219.5,404.5C 219.603,401.364 220.603,398.698 222.5,396.5C 226.853,397.059 231.186,397.725 235.5,398.5C 232.346,406.145 229.179,413.812 226,421.5C 224.403,430.354 225.736,438.687 230,446.5C 242.53,462.129 257.363,464.629 274.5,454C 284.434,444.865 287.934,433.699 285,420.5C 281.924,413.096 278.757,405.763 275.5,398.5C 280.092,398.118 284.425,397.118 288.5,395.5 Z"/></g>
<g><path style="opacity:1" fill="#4194cb" d="M 254.5,396.5 C 255.75,396.577 256.583,397.244 257,398.5C 261.588,408.508 265.755,418.675 269.5,429C 267.866,439.995 261.533,444.328 250.5,442C 245.054,439.465 242.054,435.132 241.5,429C 245.741,418.105 250.075,407.271 254.5,396.5 Z"/></g>
</svg>
